 <svg xmlns="http://www.w3.org/2000/svg"
                space="preserve"
                viewBox="0 0 35 35"
                fill="#ffffff"
              >
                <circle cx="16" cy="13" r="2" />
                <path
                  fill="#ffffff"
                  d="M17.88 10.661C17.585 7.532 16.792 0 16 0s-1.585 7.532-1.88 10.661C14.635 10.248 15.288 10 16 10s1.365.248 1.88.661zM18.968 12.56a3 3 0 1 1-5.935-.001c-2.556 1.815-8.702 6.279-8.306 6.966.395.687 7.304-2.387 10.166-3.699L14 31s.5 1 2 1 2-1 2-1l-.893-15.173c2.863 1.312 9.771 4.386 10.166 3.7.397-.688-5.75-5.153-8.305-6.967z"
                />
              </svg>