 <svg xmlns="http://www.w3.org/2000/svg" width="35" height="35">
                <path
                  fill="#ffffff"
                  fill-rule="evenodd"
                  d="M.004 11.797 0 11.788l.004.009zm41.98 6.983-1.258-2.44C23.979 21.885 17.399 3.205.004 11.797l1.25 2.422c17.069-7.589 21.053 11.75 40.73 4.561zm-.001 6.041.017.033-.017-.033zM.004 17.842l1.25 2.42c17.069-7.586 21.053 11.749 40.729 4.559l-1.257-2.434C23.979 27.928 17.399 9.248.004 17.842zm0 6.043 1.25 2.422c17.069-7.588 21.053 11.75 40.73 4.561l-1.258-2.436C23.979 33.973 17.399 15.293.004 23.885z"
                />
              </svg>